<svg id="mermaidChart390" width="100%" xmlns="http://www.w3.org/2000/svg" height="100%" style="max-width:574.46875px;" viewBox="-75 -10 574.46875 756"><style type="text/css" title="mermaid-svg-internal-css">/*  */
*, ::before, ::after { box-sizing: inherit;}
.actor { stroke: rgb(204, 204, 255); fill: rgb(226, 236, 255);}
text.actor { fill: black; stroke: none; font-size: 12px;}
.actor-line { stroke: grey;}
.messageLine0 { stroke-width: 1.5; stroke: black;}
#arrowhead { fill: black;}
.messageText { fill: black; stroke: none; font-size: 12px;}
.actor { stroke: rgb(204, 204, 255); fill: rgb(236, 236, 255);}
text.actor { fill: black; stroke: none;}
.actor-line { stroke: grey;}
.messageLine0 { stroke-width: 1.5; stroke: rgb(51, 51, 51);}
#arrowhead { fill: rgb(51, 51, 51);}
#crosshead path { fill: rgb(51, 51, 51) !important; stroke: rgb(51, 51, 51) !important;}
.messageText { fill: rgb(51, 51, 51); stroke: none;}
text { font-family: "trebuchet ms", verdana, arial; font-size: 14px;}
/*  */
</style><g></g><g><line id="actor658" x1="75" y1="5" x2="75" y2="745" class="actor-line" stroke-width="0.5px" stroke="#999"></line><rect x="0" y="0" fill="#eaeaea" stroke="#666" width="150" height="65" rx="3" ry="3" class="actor"></rect><text x="75" y="37.5" class="actor" style="text-anchor: middle;">display()</text></g><g><line id="actor659" x1="275" y1="5" x2="275" y2="745" class="actor-line" stroke-width="0.5px" stroke="#999"></line><rect x="200" y="0" fill="#eaeaea" stroke="#666" width="150" height="65" rx="3" ry="3" class="actor"></rect><text x="275" y="37.5" class="actor" style="text-anchor: middle;">StressCircle</text></g><defs><marker id="arrowhead" refX="5" refY="2" markerWidth="6" markerHeight="4" orient="auto"><path d="M 0,0 V 4 L6,2 Z"></path></marker></defs><defs><marker id="crosshead" markerWidth="15" markerHeight="8" orient="auto" refX="16" refY="4"><path fill="black" stroke="#000000" stroke-width="1px" d="M 9,2 V 6 L16,4 Z" style="stroke-dasharray: 0, 0;"></path><path fill="none" stroke="#000000" stroke-width="1px" d="M 0,1 L 6,7 M 6,1 L 0,7" style="stroke-dasharray: 0, 0;"></path></marker></defs><g><text x="75" y="93" class="messageText" style="text-anchor: middle;">バッファ・変換行列・カメラ初期化</text><path d="M 75,100 C 135,90 135,130 75,120" class="messageLine0" stroke-width="2" stroke="black" marker-end="url(#arrowhead)" style="fill: none;"></path></g><g><text x="75" y="158" class="messageText" style="text-anchor: middle;">軸描画: drawAxis()</text><path d="M 75,165 C 135,155 135,195 75,185" class="messageLine0" stroke-width="2" stroke="black" marker-end="url(#arrowhead)" style="fill: none;"></path></g><g><text x="175" y="223" class="messageText" style="text-anchor: middle;">updateVal()</text><line x1="75" y1="230" x2="275" y2="230" class="messageLine0" stroke-width="2" stroke="black" marker-end="url(#arrowhead)" style="fill: none;"></line></g><g><text x="275" y="258" class="messageText" style="text-anchor: middle;">現在の応力値から表示する数値を計算</text><path d="M 275,265 C 335,255 335,295 275,285" class="messageLine0" stroke-width="2" stroke="black" marker-end="url(#arrowhead)" style="fill: none;"></path></g><g><text x="175" y="323" class="messageText" style="text-anchor: middle;">drawCircle()</text><line x1="75" y1="330" x2="275" y2="330" class="messageLine0" stroke-width="2" stroke="black" marker-end="url(#arrowhead)" style="fill: none;"></line></g><g><text x="275" y="358" class="messageText" style="text-anchor: middle;">応力円描画/主応力描画</text><path d="M 275,365 C 335,355 335,395 275,385" class="messageLine0" stroke-width="2" stroke="black" marker-end="url(#arrowhead)" style="fill: none;"></path></g><g><text x="175" y="423" class="messageText" style="text-anchor: middle;">drawHandles(GL_RENDER)</text><line x1="75" y1="430" x2="275" y2="430" class="messageLine0" stroke-width="2" stroke="black" marker-end="url(#arrowhead)" style="fill: none;"></line></g><g><text x="275" y="458" class="messageText" style="text-anchor: middle;">応力値変更用要素描画
(x軸ハンドル/y軸ハンドル/角度ハンドル)</text><path d="M 275,465 C 335,455 335,495 275,485" class="messageLine0" stroke-width="2" stroke="black" marker-end="url(#arrowhead)" style="fill: none;"></path></g><g><text x="175" y="523" class="messageText" style="text-anchor: middle;">drawString()</text><line x1="75" y1="530" x2="275" y2="530" class="messageLine0" stroke-width="2" stroke="black" marker-end="url(#arrowhead)" style="fill: none;"></line></g><g><text x="275" y="558" class="messageText" style="text-anchor: middle;">各種数値を文字列化して描画</text><path d="M 275,565 C 335,555 335,595 275,585" class="messageLine0" stroke-width="2" stroke="black" marker-end="url(#arrowhead)" style="fill: none;"></path></g><g><text x="75" y="623" class="messageText" style="text-anchor: middle;">glFlush() glutSwapBuffers()</text><path d="M 75,630 C 135,620 135,660 75,650" class="messageLine0" stroke-width="2" stroke="black" marker-end="url(#arrowhead)" style="fill: none;"></path></g><g><rect x="0" y="680" fill="#eaeaea" stroke="#666" width="150" height="65" rx="3" ry="3" class="actor"></rect><text x="75" y="717.5" class="actor" style="text-anchor: middle;">display()</text></g><g><rect x="200" y="680" fill="#eaeaea" stroke="#666" width="150" height="65" rx="3" ry="3" class="actor"></rect><text x="275" y="717.5" class="actor" style="text-anchor: middle;">StressCircle</text></g></svg>