<svg id="mermaidChart418" width="100%" xmlns="http://www.w3.org/2000/svg" height="100%" style="max-width:685px;" viewBox="-50 -10 685 742"><style type="text/css" title="mermaid-svg-internal-css">/*  */
*, ::before, ::after { box-sizing: inherit;}
.actor { stroke: rgb(204, 204, 255); fill: rgb(226, 236, 255);}
text.actor { fill: black; stroke: none; font-size: 12px;}
.actor-line { stroke: grey;}
.messageLine0 { stroke-width: 1.5; stroke: black;}
#arrowhead { fill: black;}
.messageText { fill: black; stroke: none; font-size: 12px;}
.labelBox { stroke: rgb(204, 204, 255); fill: rgb(236, 236, 255);}
.labelText { fill: black; stroke: none;}
.loopText { fill: black; stroke: none;}
.loopLine { stroke-width: 2; stroke: rgb(204, 204, 255);}
.note { stroke: rgb(204, 204, 255); fill: rgb(255, 245, 173);}
.noteText { fill: black; stroke: none; font-size: 12px;}
.actor { stroke: rgb(204, 204, 255); fill: rgb(236, 236, 255);}
text.actor { fill: black; stroke: none;}
.actor-line { stroke: grey;}
.messageLine0 { stroke-width: 1.5; stroke: rgb(51, 51, 51);}
#arrowhead { fill: rgb(51, 51, 51);}
#crosshead path { fill: rgb(51, 51, 51) !important; stroke: rgb(51, 51, 51) !important;}
.messageText { fill: rgb(51, 51, 51); stroke: none;}
.labelBox { stroke: rgb(204, 204, 255); fill: rgb(236, 236, 255);}
.labelText { fill: black; stroke: none;}
.loopText { fill: black; stroke: none;}
.loopLine { stroke-width: 2; stroke: rgb(204, 204, 255);}
.note { stroke: rgb(170, 170, 51); fill: rgb(255, 245, 173);}
.noteText { fill: black; stroke: none; font-family: "trebuchet ms", verdana, arial; font-size: 14px;}
text { font-family: "trebuchet ms", verdana, arial; font-size: 14px;}
/*  */
</style><g></g><g><line id="actor741" x1="75" y1="5" x2="75" y2="731" class="actor-line" stroke-width="0.5px" stroke="#999"></line><rect x="0" y="0" fill="#eaeaea" stroke="#666" width="150" height="65" rx="3" ry="3" class="actor"></rect><text x="75" y="37.5" class="actor" style="text-anchor: middle;">motion()</text></g><g><line id="actor742" x1="275" y1="5" x2="275" y2="731" class="actor-line" stroke-width="0.5px" stroke="#999"></line><rect x="200" y="0" fill="#eaeaea" stroke="#666" width="150" height="65" rx="3" ry="3" class="actor"></rect><text x="275" y="37.5" class="actor" style="text-anchor: middle;">StressCircle</text></g><g><line id="actor743" x1="475" y1="5" x2="475" y2="731" class="actor-line" stroke-width="0.5px" stroke="#999"></line><rect x="400" y="0" fill="#eaeaea" stroke="#666" width="150" height="65" rx="3" ry="3" class="actor"></rect><text x="475" y="37.5" class="actor" style="text-anchor: middle;">GLUI</text></g><defs><marker id="arrowhead" refX="5" refY="2" markerWidth="6" markerHeight="4" orient="auto"><path d="M 0,0 V 4 L6,2 Z"></path></marker></defs><defs><marker id="crosshead" markerWidth="15" markerHeight="8" orient="auto" refX="16" refY="4"><path fill="black" stroke="#000000" stroke-width="1px" d="M 9,2 V 6 L16,4 Z" style="stroke-dasharray: 0, 0;"></path><path fill="none" stroke="#000000" stroke-width="1px" d="M 0,1 L 6,7 M 6,1 L 0,7" style="stroke-dasharray: 0, 0;"></path></marker></defs><g><text x="175" y="118" class="messageText" style="text-anchor: middle;">dragHandle(x, y)</text><line x1="75" y1="125" x2="275" y2="125" class="messageLine0" stroke-width="2" stroke="black" marker-end="url(#arrowhead)" style="fill: none;"></line></g><g><rect x="300" y="135" fill="#EDF2AE" stroke="#666" width="150" height="36" rx="0" ry="0" class="note"></rect><text x="316" y="163" fill="black" class="noteText"><tspan x="316">x,y: マウス座標</tspan></text></g><g><text x="275" y="199" class="messageText" style="text-anchor: middle;">ウィンドウ座標→ワールド座標変換</text><path d="M 275,206 C 335,196 335,236 275,226" class="messageLine0" stroke-width="2" stroke="black" marker-end="url(#arrowhead)" style="fill: none;"></path></g><g><text x="275" y="289" class="messageText" style="text-anchor: middle;">σ_x,τ更新</text><path d="M 275,296 C 335,286 335,326 275,316" class="messageLine0" stroke-width="2" stroke="black" marker-end="url(#arrowhead)" style="fill: none;"></path></g><g><line x1="165" y1="246" x2="385" y2="246" stroke-width="2" stroke="#526e52" class="loopLine"></line><line x1="385" y1="246" x2="385" y2="336" stroke-width="2" stroke="#526e52" class="loopLine"></line><line x1="165" y1="336" x2="385" y2="336" stroke-width="2" stroke="#526e52" class="loopLine"></line><line x1="165" y1="246" x2="165" y2="336" stroke-width="2" stroke="#526e52" class="loopLine"></line><rect x="165" y="246" fill="#526e52" stroke="none" width="50" height="20" rx="0" ry="0" class="labelBox"></rect><text x="172.5" y="261" fill="white" class="labelText"><tspan x="172.5">opt</tspan></text><text x="275" y="261" fill="black" class="loopText" style="text-anchor: middle;"><tspan x="275">[ x軸ハンドル ]</tspan></text></g><g><text x="275" y="389" class="messageText" style="text-anchor: middle;">σ_y,τ更新</text><path d="M 275,396 C 335,386 335,426 275,416" class="messageLine0" stroke-width="2" stroke="black" marker-end="url(#arrowhead)" style="fill: none;"></path></g><g><line x1="165" y1="346" x2="385" y2="346" stroke-width="2" stroke="#526e52" class="loopLine"></line><line x1="385" y1="346" x2="385" y2="436" stroke-width="2" stroke="#526e52" class="loopLine"></line><line x1="165" y1="436" x2="385" y2="436" stroke-width="2" stroke="#526e52" class="loopLine"></line><line x1="165" y1="346" x2="165" y2="436" stroke-width="2" stroke="#526e52" class="loopLine"></line><rect x="165" y="346" fill="#526e52" stroke="none" width="50" height="20" rx="0" ry="0" class="labelBox"></rect><text x="172.5" y="361" fill="white" class="labelText"><tspan x="172.5">opt</tspan></text><text x="275" y="361" fill="black" class="loopText" style="text-anchor: middle;"><tspan x="275">[ y軸ハンドル ]</tspan></text></g><g><text x="275" y="489" class="messageText" style="text-anchor: middle;">σ_x,σ_y,τ算出・更新</text><path d="M 275,496 C 335,486 335,526 275,516" class="messageLine0" stroke-width="2" stroke="black" marker-end="url(#arrowhead)" style="fill: none;"></path></g><g><line x1="165" y1="446" x2="385" y2="446" stroke-width="2" stroke="#526e52" class="loopLine"></line><line x1="385" y1="446" x2="385" y2="536" stroke-width="2" stroke="#526e52" class="loopLine"></line><line x1="165" y1="536" x2="385" y2="536" stroke-width="2" stroke="#526e52" class="loopLine"></line><line x1="165" y1="446" x2="165" y2="536" stroke-width="2" stroke="#526e52" class="loopLine"></line><rect x="165" y="446" fill="#526e52" stroke="none" width="50" height="20" rx="0" ry="0" class="labelBox"></rect><text x="172.5" y="461" fill="white" class="labelText"><tspan x="172.5">opt</tspan></text><text x="275" y="461" fill="black" class="loopText" style="text-anchor: middle;"><tspan x="275">[ 角度ハンドル ]</tspan></text></g><g><text x="275" y="564" class="messageText" style="text-anchor: middle;">sync_live()</text><line x1="75" y1="571" x2="475" y2="571" class="messageLine0" stroke-width="2" stroke="black" marker-end="url(#arrowhead)" style="fill: none;"></line></g><g><text x="475" y="599" class="messageText" style="text-anchor: middle;">Live variables更新</text><path d="M 475,606 C 535,596 535,636 475,626" class="messageLine0" stroke-width="2" stroke="black" marker-end="url(#arrowhead)" style="fill: none;"></path></g><g><line x1="65" y1="75" x2="585" y2="75" stroke-width="2" stroke="#526e52" class="loopLine"></line><line x1="585" y1="75" x2="585" y2="646" stroke-width="2" stroke="#526e52" class="loopLine"></line><line x1="65" y1="646" x2="585" y2="646" stroke-width="2" stroke="#526e52" class="loopLine"></line><line x1="65" y1="75" x2="65" y2="646" stroke-width="2" stroke="#526e52" class="loopLine"></line><rect x="65" y="75" fill="#526e52" stroke="none" width="50" height="20" rx="0" ry="0" class="labelBox"></rect><text x="72.5" y="90" fill="white" class="labelText"><tspan x="72.5">opt</tspan></text><text x="325" y="90" fill="black" class="loopText" style="text-anchor: middle;"><tspan x="325">[ ドラッグフラグがtrueの時のみ ]</tspan></text></g><g><rect x="0" y="666" fill="#eaeaea" stroke="#666" width="150" height="65" rx="3" ry="3" class="actor"></rect><text x="75" y="703.5" class="actor" style="text-anchor: middle;">motion()</text></g><g><rect x="200" y="666" fill="#eaeaea" stroke="#666" width="150" height="65" rx="3" ry="3" class="actor"></rect><text x="275" y="703.5" class="actor" style="text-anchor: middle;">StressCircle</text></g><g><rect x="400" y="666" fill="#eaeaea" stroke="#666" width="150" height="65" rx="3" ry="3" class="actor"></rect><text x="475" y="703.5" class="actor" style="text-anchor: middle;">GLUI</text></g></svg>