<svg id="mermaidChart440" width="100%" xmlns="http://www.w3.org/2000/svg" height="100%" style="max-width:585px;" viewBox="-75 -10 585 449"><style type="text/css" title="mermaid-svg-internal-css">/*  */
*, ::before, ::after { box-sizing: inherit;}
.actor { stroke: rgb(204, 204, 255); fill: rgb(226, 236, 255);}
text.actor { fill: black; stroke: none; font-size: 12px;}
.actor-line { stroke: grey;}
.messageLine0 { stroke-width: 1.5; stroke: black;}
#arrowhead { fill: black;}
.messageText { fill: black; stroke: none; font-size: 12px;}
.labelBox { stroke: rgb(204, 204, 255); fill: rgb(236, 236, 255);}
.labelText { fill: black; stroke: none;}
.loopText { fill: black; stroke: none;}
.loopLine { stroke-width: 2; stroke: rgb(204, 204, 255);}
.note { stroke: rgb(204, 204, 255); fill: rgb(255, 245, 173);}
.noteText { fill: black; stroke: none; font-size: 12px;}
.actor { stroke: rgb(204, 204, 255); fill: rgb(236, 236, 255);}
text.actor { fill: black; stroke: none;}
.actor-line { stroke: grey;}
.messageLine0 { stroke-width: 1.5; stroke: rgb(51, 51, 51);}
#arrowhead { fill: rgb(51, 51, 51);}
#crosshead path { fill: rgb(51, 51, 51) !important; stroke: rgb(51, 51, 51) !important;}
.messageText { fill: rgb(51, 51, 51); stroke: none;}
.labelBox { stroke: rgb(204, 204, 255); fill: rgb(236, 236, 255);}
.labelText { fill: black; stroke: none;}
.loopText { fill: black; stroke: none;}
.loopLine { stroke-width: 2; stroke: rgb(204, 204, 255);}
.note { stroke: rgb(170, 170, 51); fill: rgb(255, 245, 173);}
.noteText { fill: black; stroke: none; font-family: "trebuchet ms", verdana, arial; font-size: 14px;}
text { font-family: "trebuchet ms", verdana, arial; font-size: 14px;}
/*  */
</style><g></g><g><line id="actor786" x1="75" y1="5" x2="75" y2="438" class="actor-line" stroke-width="0.5px" stroke="#999"></line><rect x="0" y="0" fill="#eaeaea" stroke="#666" width="150" height="65" rx="3" ry="3" class="actor"></rect><text x="75" y="37.5" class="actor" style="text-anchor: middle;">mouse()</text></g><g><line id="actor787" x1="275" y1="5" x2="275" y2="438" class="actor-line" stroke-width="0.5px" stroke="#999"></line><rect x="200" y="0" fill="#eaeaea" stroke="#666" width="150" height="65" rx="3" ry="3" class="actor"></rect><text x="275" y="37.5" class="actor" style="text-anchor: middle;">StressCircle</text></g><defs><marker id="arrowhead" refX="5" refY="2" markerWidth="6" markerHeight="4" orient="auto"><path d="M 0,0 V 4 L6,2 Z"></path></marker></defs><defs><marker id="crosshead" markerWidth="15" markerHeight="8" orient="auto" refX="16" refY="4"><path fill="black" stroke="#000000" stroke-width="1px" d="M 9,2 V 6 L16,4 Z" style="stroke-dasharray: 0, 0;"></path><path fill="none" stroke="#000000" stroke-width="1px" d="M 0,1 L 6,7 M 6,1 L 0,7" style="stroke-dasharray: 0, 0;"></path></marker></defs><g><text x="175" y="118" class="messageText" style="text-anchor: middle;">pickHandle(x, y)</text><line x1="75" y1="125" x2="275" y2="125" class="messageLine0" stroke-width="2" stroke="black" marker-end="url(#arrowhead)" style="fill: none;"></line></g><g><text x="275" y="153" class="messageText" style="text-anchor: middle;">マウスピッキング処理</text><path d="M 275,160 C 335,150 335,190 275,180" class="messageLine0" stroke-width="2" stroke="black" marker-end="url(#arrowhead)" style="fill: none;"></path></g><g><rect x="300" y="200" fill="#EDF2AE" stroke="#666" width="150" height="78" rx="0" ry="0" class="note"></rect><text x="316" y="228" fill="black" class="noteText"><tspan x="316">object_nameにクリ</tspan><tspan dy="21" x="316">ックしたオブジェク</tspan><tspan dy="21" x="316">トの番号を保持する</tspan></text></g><g><line x1="65" y1="75" x2="460" y2="75" stroke-width="2" stroke="#526e52" class="loopLine"></line><line x1="460" y1="75" x2="460" y2="288" stroke-width="2" stroke="#526e52" class="loopLine"></line><line x1="65" y1="288" x2="460" y2="288" stroke-width="2" stroke="#526e52" class="loopLine"></line><line x1="65" y1="75" x2="65" y2="288" stroke-width="2" stroke="#526e52" class="loopLine"></line><rect x="65" y="75" fill="#526e52" stroke="none" width="50" height="20" rx="0" ry="0" class="labelBox"></rect><text x="72.5" y="90" fill="white" class="labelText"><tspan x="72.5">opt</tspan></text><text x="262.5" y="90" fill="black" class="loopText" style="text-anchor: middle;"><tspan x="262.5">[ ボタン押下時 ]</tspan></text></g><g><text x="75" y="316" class="messageText" style="text-anchor: middle;">ドラッグフラグ反転</text><path d="M 75,323 C 135,313 135,353 75,343" class="messageLine0" stroke-width="2" stroke="black" marker-end="url(#arrowhead)" style="fill: none;"></path></g><g><rect x="0" y="373" fill="#eaeaea" stroke="#666" width="150" height="65" rx="3" ry="3" class="actor"></rect><text x="75" y="410.5" class="actor" style="text-anchor: middle;">mouse()</text></g><g><rect x="200" y="373" fill="#eaeaea" stroke="#666" width="150" height="65" rx="3" ry="3" class="actor"></rect><text x="275" y="410.5" class="actor" style="text-anchor: middle;">StressCircle</text></g></svg>